<svg xmlns="http://www.w3.org/2000/svg" width="20" height="20" viewBox="0 0 20 20"><g><g><path fill="#444" d="M19.74 2.77c-.265.741-.711 1.52-1.083 1.892L15.71 7.609l1.546 9.84-2.505 2.505-3.204-8.182-2.672 2.672-.219 3.73L6.87 19.96l-1.955-4.045-1.132 1.132-.83-.83 1.134-1.133-4.048-1.953 1.789-1.789 3.729-.218 2.628-2.627L0 5.292l2.505-2.504 9.843 1.546 2.99-2.99C15.71.97 16.488.524 17.23.258c1.08-.386 1.9-.34 2.376.135.475.475.521 1.297.135 2.375zM9.09 7.591L11.32 5.36 2.912 4.04l-.814.814zm5.594 1.043l-2.232 2.232 2.738 6.99.814-.815zm4.092-7.411c-.063-.063-.44-.115-1.15.14-.625.224-1.244.594-1.459.81L6.07 12.27l-3.73.219-.303.304 2.928 1.413 1.018-1.018.83.83-1.02 1.02 1.414 2.926.304-.305.219-3.73L17.827 3.833c.214-.214.585-.833.81-1.458.254-.71.202-1.087.139-1.15z"/></g></g></svg>