<svg xmlns="http://www.w3.org/2000/svg" width="24" height="14" viewBox="0 0 24 14"><g><g><path fill="#444" d="M24 11.947v1.407H0v-1.407h6.244A6.015 6.015 0 0 1 12 4.217a6.015 6.015 0 0 1 5.756 7.73zm-7.73 0A4.607 4.607 0 0 0 12 5.622a4.607 4.607 0 0 0-4.27 6.325zm-3.567-9.134h-1.406V0h1.406zm5.021-1.089L16.317 4.16l-1.218-.703 1.408-2.435zm3.485 4.004l-2.437 1.404-.702-1.218 2.436-1.404zm1.017 3.805l-.002 1.406-2.813-.003.002-1.406zM8.859 3.455l-1.218.703-1.407-2.435 1.218-.703zM5.888 5.914l-.702 1.218-2.437-1.404.702-1.218zm-1.34 5.023l-2.813.003-.001-1.406 2.812-.003z"/></g></g></svg>